HIERARCHY
ROOT RootJoint
{
    OFFSET   0.000000   0.000000   0.000000
    CHANNELS 6 Xposition Yposition Zposition Xrotation Yrotation Zrotation
    JOINT pelvis_lowerback
    {
        OFFSET   0.000000   0.093605   0.000000
        CHANNELS 3 Xrotation Yrotation Zrotation
        JOINT lowerback_torso
        {
            OFFSET   0.000000   0.100000   0.000000
            CHANNELS 3 Xrotation Yrotation Zrotation
            JOINT torso_head
            {
                OFFSET   0.000000   0.282350   0.000000
                CHANNELS 3 Xrotation Yrotation Zrotation
                End Site
                {
                    OFFSET   0.000000   0.192650   0.000000
                }
            }
            JOINT rTorso_Clavicle
            {
                OFFSET  -0.001000   0.157500   0.000000
                CHANNELS 3 Xrotation Yrotation Zrotation
                JOINT rShoulder
                {
                    OFFSET  -0.117647   0.000000   0.000000
                    CHANNELS 3 Xrotation Yrotation Zrotation
                    JOINT rElbow
                    {
                        OFFSET  -0.245000   0.000000   0.000000
                        CHANNELS 3 Xrotation Yrotation Zrotation
                        JOINT rWrist
                        {
                            OFFSET  -0.240000   0.000000   0.000000
                            CHANNELS 3 Xrotation Yrotation Zrotation
                            End Site
                            {
                                OFFSET  -0.116353  -0.002500   0.000000
                            }
                        }
                    }
                }
            }
            JOINT lTorso_Clavicle
            {
                OFFSET   0.001000   0.157500   0.000000
                CHANNELS 3 Xrotation Yrotation Zrotation
                JOINT lShoulder
                {
                    OFFSET   0.117647   0.000000   0.000000
                    CHANNELS 3 Xrotation Yrotation Zrotation
                    JOINT lElbow
                    {
                        OFFSET   0.245000   0.000000   0.000000
                        CHANNELS 3 Xrotation Yrotation Zrotation
                        JOINT lWrist
                        {
                            OFFSET   0.240000   0.000000   0.000000
                            CHANNELS 3 Xrotation Yrotation Zrotation
                            End Site
                            {
                                OFFSET   0.116353  -0.002500   0.000000
                            }
                        }
                    }
                }
            }
        }
    }
    JOINT rHip
    {
        OFFSET  -0.100000  -0.051395   0.000000
        CHANNELS 3 Xrotation Yrotation Zrotation
        JOINT rKnee
        {
            OFFSET   0.000000  -0.410000   0.000000
            CHANNELS 3 Xrotation Yrotation Zrotation
            JOINT rAnkle
            {
                OFFSET   0.000000  -0.390000   0.000000
                CHANNELS 3 Xrotation Yrotation Zrotation
                JOINT rToeJoint
                {
                    OFFSET   0.000000  -0.050000   0.130000
                    CHANNELS 3 Xrotation Yrotation Zrotation
                    End Site
                    {
                        OFFSET  -0.010000   0.002000   0.060000
                    }
                }
            }
        }
    }
    JOINT lHip
    {
        OFFSET   0.100000  -0.051395   0.000000
        CHANNELS 3 Xrotation Yrotation Zrotation
        JOINT lKnee
        {
            OFFSET   0.000000  -0.410000   0.000000
            CHANNELS 3 Xrotation Yrotation Zrotation
            JOINT lAnkle
            {
                OFFSET   0.000000  -0.390000   0.000000
                CHANNELS 3 Xrotation Yrotation Zrotation
                JOINT lToeJoint
                {
                    OFFSET   0.000000  -0.050000   0.130000
                    CHANNELS 3 Xrotation Yrotation Zrotation
                    End Site
                    {
                        OFFSET   0.010000   0.002000   0.060000
                    }
                }
            }
        }
    }
}
MOTION
Frames: 10
Frame Time:   0.008333
 -2.376719   0.925631   3.975860   0.000000   0.000000   0.000000   0.000000   0.000000   0.000000   0.000000   0.000000   0.000000   0.000000   0.000000   0.000000   0.000000   0.000000   0.000000   0.000000   0.000000   0.000000   0.000000   0.000000   0.000000   0.000000   0.000000   0.000000   0.000000   0.000000   0.000000   0.000000   0.000000   0.000000   0.000000   0.000000   0.000000   0.000000   0.000000   0.000000   0.000000   0.000000   0.000000   0.000000   0.000000   0.000000   0.000000   0.000000   0.000000   0.000000   0.000000   0.000000   0.000000   0.000000   0.000000   0.000000   0.000000   0.000000   0.000000   0.000000   0.000000   0.000000   0.000000   0.000000
 -2.376233   0.925970   3.975211   0.433368  -0.101077   0.122680  -0.620174   0.160698  -0.054304   0.280817  -0.006610   0.009458   0.008126   0.318814   0.155706   0.395667  -0.945781  -0.062103   1.400079  -0.464580   2.110971   0.072264   3.782161  -0.063993   0.232773  -0.855881  -2.344435  -0.043884   0.383558  -0.121272  -0.118238   0.278755  -2.291743   0.073198  -3.589400  -0.000317   0.127011   1.110712   2.712565  -2.062720  -0.310372  -0.066109   3.625526  -0.002273  -0.013064  -1.595995   0.108498   0.150785   0.163045  -0.000291  -0.000438  -0.939089  -0.046570  -0.323711   2.760520   0.004778  -0.003742  -3.826493  -0.116258   0.053680   0.199291   0.000263  -0.000451
 -2.375578   0.926466   3.975194   0.693832  -0.071006   0.273358  -1.240134   0.211264  -0.091247   0.597342  -0.115793   0.008538   0.070360   0.634076   0.329966   0.782848  -1.932634   0.452286   2.792907  -0.894617   4.691635   0.176187   7.641751  -0.110917   0.549899  -0.866248  -4.155511  -0.080794   0.706052  -0.922415  -0.241306   0.455119  -5.129405   0.172277  -7.293321  -0.004646   0.271744   1.270308   4.684595  -4.176439  -0.627872  -0.094236   7.359190  -0.008055  -0.019565  -3.060707   0.202341   0.291283   0.359233  -0.000732  -0.000696  -1.400369  -0.103558  -0.807492   5.896318   0.012639  -0.004810  -7.662276  -0.246244   0.091919   0.223744   0.000272  -0.000393
 -2.374898   0.926738   3.975662   0.897318   0.089822   0.418414  -1.895973   0.157726  -0.117259   0.856152  -0.318129   0.001497   0.130247   0.928392   0.504621   1.155921  -2.893272   1.344124   4.183569  -1.288945   7.591430   0.286144  11.417110  -0.140456   0.865460  -0.718056  -5.291165  -0.104541   0.955745  -2.140547  -0.360822   0.581309  -8.306369   0.275625 -11.017658  -0.012326   0.414083   1.157245   5.847550  -6.331804  -0.927565  -0.052994  10.844065  -0.015139  -0.018777  -4.424845   0.287389   0.423332   0.550475  -0.001211  -0.000645  -1.512227  -0.157111  -1.374525   9.175434   0.022097  -0.003107 -11.339528  -0.376629   0.114924   0.251376   0.000310  -0.000315
 -2.374291   0.926498   3.976458   1.071109   0.370738   0.550385  -2.572200   0.019763  -0.151201   1.049980  -0.594429  -0.025737   0.175633   1.201949   0.678123   1.523009  -3.817069   2.478287   5.584012  -1.630589  10.724187   0.382017  14.934789  -0.155477   1.164383  -0.535006  -5.879762  -0.109438   1.145460  -3.649994  -0.462655   0.676378 -11.550428   0.369934 -14.748891  -0.020858   0.537765   0.971796   6.328436  -8.531866  -1.212754   0.056116  14.047441  -0.021852  -0.012988  -5.700533   0.365055   0.547728   0.716549  -0.001612  -0.000380  -1.350727  -0.209921  -1.983586  12.550586   0.032379   0.000490 -14.768030  -0.500769   0.124854   0.279873   0.000359  -0.000219
 -2.373759   0.925507   3.977458   1.219126   0.751819   0.663967  -3.250305  -0.190727  -0.197231   1.194582  -0.935749  -0.061995   0.207442   1.457114   0.840162   1.895767  -4.719796   3.795480   6.939292  -1.907974  13.892222   0.455586  18.202582  -0.159280   1.433723  -0.416871  -5.999771  -0.093404   1.294070  -5.322126  -0.543310   0.753557 -14.770943   0.449510 -18.479918  -0.028472   0.639115   0.786958   6.338868 -10.770239  -1.488004   0.220637  16.983487  -0.027184  -0.004531  -6.894121   0.436108   0.665128   0.858537  -0.001900  -0.000025  -0.963372  -0.266244  -2.608860  16.005982   0.043164   0.004908 -17.964189  -0.617330   0.124893   0.313875   0.000433  -0.000102
 -2.373286   0.923584   3.978559   1.341524   1.208853   0.758417  -3.915333  -0.462791  -0.254157   1.306532  -1.332371  -0.102622   0.228809   1.695326   0.989578   2.279785  -5.603526   5.217140   8.233710  -2.122321  16.994695   0.505279  21.237550  -0.155460   1.671911  -0.381090  -5.787049  -0.056881   1.410208  -7.066744  -0.602264   0.817600 -17.910271   0.512563 -22.208350  -0.033960   0.719885   0.627632   6.039930 -13.038475  -1.756551   0.424201  19.671802  -0.030778   0.004734  -8.010786   0.501009   0.776006   0.980386  -0.002075   0.000334  -0.387315  -0.330047  -3.235109  19.531335   0.054176   0.009100 -20.944012  -0.725950   0.117707   0.351868   0.000522   0.000030
 -2.373312   0.920043   3.979217   1.320421   1.424186   0.476426  -4.301527  -0.511191  -0.022746   1.536667  -1.714554   0.064536   0.057842   1.725848   0.903265   2.767907  -6.386150   5.944689   9.696001  -2.408388  19.699543   0.551667  24.988383  -0.173937   1.659867  -0.658970  -4.404913  -0.273625   1.568527  -8.046672  -0.667716   0.405727 -21.345873   0.541603 -25.852338  -0.035156   0.524013   0.752591   4.960322 -15.544273  -2.079885   1.064105  22.837710  -0.037450   0.010196  -9.482174   0.414101   0.737849   1.410485  -0.003358   0.000374   1.200395  -0.411626  -3.249194  20.668086   0.047082   0.007459 -23.981473  -0.859763  -0.007310   0.867340   0.002317   0.000414
 -2.373604   0.915082   3.979183   1.320970   1.832097   0.133558  -4.566341  -0.677826   0.193882   1.802527  -2.180448   0.239469  -0.105604   1.747752   0.831791   3.212952  -7.068840   6.367752  11.053441  -2.589637  22.048742   0.565296  28.635275  -0.188076   1.685648  -0.706828  -3.177080  -0.519556   1.562169  -8.762725  -0.794021  -0.096705 -24.433536   0.551468 -29.543567  -0.028869   0.347612   0.735895   3.955480 -18.175871  -2.448266   1.695975  25.803636  -0.039866   0.020042 -10.856831   0.330026   0.697959   1.782277  -0.004048   0.001118   2.824292  -0.528643  -3.040127  21.465357   0.039694   0.007489 -26.836708  -0.974891  -0.132282   1.299348   0.002826   0.001257
 -2.374036   0.908837   3.978700   1.323383   2.370400  -0.198150  -4.730643  -0.914520   0.357917   2.096142  -2.698164   0.379306  -0.248705   1.767632   0.768620   3.609254  -7.665993   6.593932  12.304239  -2.691869  24.119103   0.554724  32.059328  -0.196073   1.729311  -0.618019  -2.236347  -0.800877   1.433862  -9.291674  -0.980715  -0.652192 -27.217156   0.550033 -33.272535  -0.018373   0.209454   0.529543   3.166650 -20.844828  -2.816296   2.233477  28.508365  -0.038340   0.030768 -12.141667   0.252268   0.657311   2.119436  -0.004305   0.002161   4.439256  -0.640875  -2.713294  22.177003   0.033246   0.008323 -29.503880  -1.071499  -0.254657   1.693389   0.002709   0.002291
